<?xml version="1.0" encoding="UTF-8" standalone="no"?>
<!DOCTYPE svg PUBLIC "-//W3C//DTD SVG 1.1//EN"
 "http://www.w3.org/Graphics/SVG/1.1/DTD/svg11.dtd">
<!-- Generated by graphviz version 2.40.1 (20161225.0304)
 -->
<!-- Title: org.example Pages: 1 -->
<svg width="1764px" height="139px"
 viewBox="0.00 0.00 1764.00 139.00" xmlns="http://www.w3.org/2000/svg" xmlns:xlink="http://www.w3.org/1999/xlink">
<g id="graph0" class="graph" transform="scale(1.0 1.0) rotate(0) translate(4 135)">
<title>org.example</title>
<polygon fill="#ffffff" stroke="transparent" points="-4,4 -4,-135 1760,-135 1760,4 -4,4"/>
<!-- bill -->
<g id="node1" class="node">
<title>bill</title>
<polygon fill="none" stroke="#000000" points="396,-110 396,-127 469,-127 469,-110 396,-110"/>
<text text-anchor="start" x="405" y="-117" font-family="Times,serif" text-decoration="underline" font-size="10.00" fill="#000000">bill :Person</text>
<polygon fill="none" stroke="#000000" points="396,-93 396,-110 469,-110 469,-93 396,-93"/>
<text text-anchor="start" x="399" y="-99" font-family="Times,serif" font-size="10.00" fill="#000000">name = &quot;Bill&quot;</text>
</g>
<!-- house1 -->
<g id="node2" class="node">
<title>house1</title>
<polygon fill="none" stroke="#000000" points="8,-31.5 8,-48.5 100,-48.5 100,-31.5 8,-31.5"/>
<text text-anchor="start" x="17.5" y="-38.5" font-family="Times,serif" text-decoration="underline" font-size="10.00" fill="#000000">house1 :House</text>
<polygon fill="none" stroke="#000000" points="8,-3.5 8,-31.5 100,-31.5 100,-3.5 8,-3.5"/>
<text text-anchor="start" x="11" y="-20.5" font-family="Times,serif" font-size="10.00" fill="#000000">name = &quot;house1&quot;</text>
<text text-anchor="start" x="11" y="-9.5" font-family="Times,serif" font-size="10.00" fill="#000000">pebbles = 0</text>
</g>
<!-- bill&#45;&gt;house1 -->
<g id="edge1" class="edge">
<title>bill&#45;&gt;house1</title>
<path fill="none" stroke="#000000" d="M387.4625,-105.064C325.7847,-97.5272 211.3009,-80.996 117,-53 114.0425,-52.122 111.0359,-51.149 108.0207,-50.1093"/>
<text text-anchor="middle" x="125.5207" y="-53.1093" font-family="Times,serif" font-size="10.00" fill="#000000">houses</text>
</g>
<!-- house2 -->
<g id="node6" class="node">
<title>house2</title>
<polygon fill="none" stroke="#000000" points="134,-31.5 134,-48.5 226,-48.5 226,-31.5 134,-31.5"/>
<text text-anchor="start" x="143.5" y="-38.5" font-family="Times,serif" text-decoration="underline" font-size="10.00" fill="#000000">house2 :House</text>
<polygon fill="none" stroke="#000000" points="134,-3.5 134,-31.5 226,-31.5 226,-3.5 134,-3.5"/>
<text text-anchor="start" x="137" y="-20.5" font-family="Times,serif" font-size="10.00" fill="#000000">name = &quot;house2&quot;</text>
<text text-anchor="start" x="137" y="-9.5" font-family="Times,serif" font-size="10.00" fill="#000000">pebbles = 4</text>
</g>
<!-- bill&#45;&gt;house2 -->
<g id="edge2" class="edge">
<title>bill&#45;&gt;house2</title>
<path fill="none" stroke="#000000" d="M387.2708,-97.9453C348.6989,-87.2099 291.6922,-70.5283 243,-53 240.0973,-51.9551 237.1343,-50.849 234.1533,-49.7051"/>
<text text-anchor="middle" x="251.6533" y="-52.7051" font-family="Times,serif" font-size="10.00" fill="#000000">houses</text>
</g>
<!-- house3 -->
<g id="node7" class="node">
<title>house3</title>
<polygon fill="none" stroke="#000000" points="260,-31.5 260,-48.5 352,-48.5 352,-31.5 260,-31.5"/>
<text text-anchor="start" x="269.5" y="-38.5" font-family="Times,serif" text-decoration="underline" font-size="10.00" fill="#000000">house3 :House</text>
<polygon fill="none" stroke="#000000" points="260,-3.5 260,-31.5 352,-31.5 352,-3.5 260,-3.5"/>
<text text-anchor="start" x="263" y="-20.5" font-family="Times,serif" font-size="10.00" fill="#000000">name = &quot;house3&quot;</text>
<text text-anchor="start" x="263" y="-9.5" font-family="Times,serif" font-size="10.00" fill="#000000">pebbles = 4</text>
</g>
<!-- bill&#45;&gt;house3 -->
<g id="edge3" class="edge">
<title>bill&#45;&gt;house3</title>
<path fill="none" stroke="#000000" d="M400.2049,-88.9294C383.8746,-78.1073 363.8019,-64.8052 346.3871,-53.2645"/>
<text text-anchor="middle" x="328.8871" y="-56.2645" font-family="Times,serif" font-size="10.00" fill="#000000">houses</text>
</g>
<!-- house4 -->
<g id="node8" class="node">
<title>house4</title>
<polygon fill="none" stroke="#000000" points="386,-31.5 386,-48.5 478,-48.5 478,-31.5 386,-31.5"/>
<text text-anchor="start" x="395.5" y="-38.5" font-family="Times,serif" text-decoration="underline" font-size="10.00" fill="#000000">house4 :House</text>
<polygon fill="none" stroke="#000000" points="386,-3.5 386,-31.5 478,-31.5 478,-3.5 386,-3.5"/>
<text text-anchor="start" x="389" y="-20.5" font-family="Times,serif" font-size="10.00" fill="#000000">name = &quot;house4&quot;</text>
<text text-anchor="start" x="389" y="-9.5" font-family="Times,serif" font-size="10.00" fill="#000000">pebbles = 4</text>
</g>
<!-- bill&#45;&gt;house4 -->
<g id="edge4" class="edge">
<title>bill&#45;&gt;house4</title>
<path fill="none" stroke="#000000" d="M432,-88.9294C432,-78.1073 432,-64.8052 432,-53.2645"/>
<text text-anchor="middle" x="414.5" y="-56.2645" font-family="Times,serif" font-size="10.00" fill="#000000">houses</text>
</g>
<!-- house5 -->
<g id="node9" class="node">
<title>house5</title>
<polygon fill="none" stroke="#000000" points="512,-31.5 512,-48.5 604,-48.5 604,-31.5 512,-31.5"/>
<text text-anchor="start" x="521.5" y="-38.5" font-family="Times,serif" text-decoration="underline" font-size="10.00" fill="#000000">house5 :House</text>
<polygon fill="none" stroke="#000000" points="512,-3.5 512,-31.5 604,-31.5 604,-3.5 512,-3.5"/>
<text text-anchor="start" x="515" y="-20.5" font-family="Times,serif" font-size="10.00" fill="#000000">name = &quot;house5&quot;</text>
<text text-anchor="start" x="515" y="-9.5" font-family="Times,serif" font-size="10.00" fill="#000000">pebbles = 3</text>
</g>
<!-- bill&#45;&gt;house5 -->
<g id="edge5" class="edge">
<title>bill&#45;&gt;house5</title>
<path fill="none" stroke="#000000" d="M463.7951,-88.9294C480.1254,-78.1073 500.1981,-64.8052 517.6129,-53.2645"/>
<text text-anchor="middle" x="500.1129" y="-56.2645" font-family="Times,serif" font-size="10.00" fill="#000000">houses</text>
</g>
<!-- house6 -->
<g id="node10" class="node">
<title>house6</title>
<polygon fill="none" stroke="#000000" points="638,-31.5 638,-48.5 730,-48.5 730,-31.5 638,-31.5"/>
<text text-anchor="start" x="647.5" y="-38.5" font-family="Times,serif" text-decoration="underline" font-size="10.00" fill="#000000">house6 :House</text>
<polygon fill="none" stroke="#000000" points="638,-3.5 638,-31.5 730,-31.5 730,-3.5 638,-3.5"/>
<text text-anchor="start" x="641" y="-20.5" font-family="Times,serif" font-size="10.00" fill="#000000">name = &quot;house6&quot;</text>
<text text-anchor="start" x="641" y="-9.5" font-family="Times,serif" font-size="10.00" fill="#000000">pebbles = 3</text>
</g>
<!-- bill&#45;&gt;house6 -->
<g id="edge6" class="edge">
<title>bill&#45;&gt;house6</title>
<path fill="none" stroke="#000000" d="M476.7292,-97.9453C515.3011,-87.2099 572.3078,-70.5283 621,-53 623.9027,-51.9551 626.8657,-50.849 629.8467,-49.7051"/>
<text text-anchor="middle" x="612.3467" y="-52.7051" font-family="Times,serif" font-size="10.00" fill="#000000">houses</text>
</g>
<!-- store1 -->
<g id="node15" class="node">
<title>store1</title>
<polygon fill="none" stroke="#000000" points="764,-31.5 764,-48.5 852,-48.5 852,-31.5 764,-31.5"/>
<text text-anchor="start" x="775.5" y="-38.5" font-family="Times,serif" text-decoration="underline" font-size="10.00" fill="#000000">store1 :Store</text>
<polygon fill="none" stroke="#000000" points="764,-3.5 764,-31.5 852,-31.5 852,-3.5 764,-3.5"/>
<text text-anchor="start" x="767" y="-20.5" font-family="Times,serif" font-size="10.00" fill="#000000">name = &quot;store1&quot;</text>
<text text-anchor="start" x="767" y="-9.5" font-family="Times,serif" font-size="10.00" fill="#000000">pebbles = 0</text>
</g>
<!-- bill&#45;&gt;store1 -->
<g id="edge7" class="edge">
<title>bill&#45;&gt;store1</title>
<path fill="none" stroke="#000000" d="M476.5846,-105.2209C538.317,-97.8662 652.8639,-81.5453 747,-53 749.8729,-52.1288 752.7914,-51.1613 755.7167,-50.1259"/>
<text text-anchor="middle" x="742.7167" y="-53.1259" font-family="Times,serif" font-size="10.00" fill="#000000">store</text>
</g>
<!-- house10 -->
<g id="node3" class="node">
<title>house10</title>
<polygon fill="none" stroke="#000000" points="886,-31.5 886,-48.5 984,-48.5 984,-31.5 886,-31.5"/>
<text text-anchor="start" x="895.5" y="-38.5" font-family="Times,serif" text-decoration="underline" font-size="10.00" fill="#000000">house10 :House</text>
<polygon fill="none" stroke="#000000" points="886,-3.5 886,-31.5 984,-31.5 984,-3.5 886,-3.5"/>
<text text-anchor="start" x="889" y="-20.5" font-family="Times,serif" font-size="10.00" fill="#000000">name = &quot;house10&quot;</text>
<text text-anchor="start" x="889" y="-9.5" font-family="Times,serif" font-size="10.00" fill="#000000">pebbles = 6</text>
</g>
<!-- house11 -->
<g id="node4" class="node">
<title>house11</title>
<polygon fill="none" stroke="#000000" points="1018,-31.5 1018,-48.5 1116,-48.5 1116,-31.5 1018,-31.5"/>
<text text-anchor="start" x="1027.5" y="-38.5" font-family="Times,serif" text-decoration="underline" font-size="10.00" fill="#000000">house11 :House</text>
<polygon fill="none" stroke="#000000" points="1018,-3.5 1018,-31.5 1116,-31.5 1116,-3.5 1018,-3.5"/>
<text text-anchor="start" x="1021" y="-20.5" font-family="Times,serif" font-size="10.00" fill="#000000">name = &quot;house11&quot;</text>
<text text-anchor="start" x="1021" y="-9.5" font-family="Times,serif" font-size="10.00" fill="#000000">pebbles = 6</text>
</g>
<!-- house12 -->
<g id="node5" class="node">
<title>house12</title>
<polygon fill="none" stroke="#000000" points="1150,-31.5 1150,-48.5 1248,-48.5 1248,-31.5 1150,-31.5"/>
<text text-anchor="start" x="1159.5" y="-38.5" font-family="Times,serif" text-decoration="underline" font-size="10.00" fill="#000000">house12 :House</text>
<polygon fill="none" stroke="#000000" points="1150,-3.5 1150,-31.5 1248,-31.5 1248,-3.5 1150,-3.5"/>
<text text-anchor="start" x="1153" y="-20.5" font-family="Times,serif" font-size="10.00" fill="#000000">name = &quot;house12&quot;</text>
<text text-anchor="start" x="1153" y="-9.5" font-family="Times,serif" font-size="10.00" fill="#000000">pebbles = 6</text>
</g>
<!-- house7 -->
<g id="node11" class="node">
<title>house7</title>
<polygon fill="none" stroke="#000000" points="1282,-31.5 1282,-48.5 1374,-48.5 1374,-31.5 1282,-31.5"/>
<text text-anchor="start" x="1291.5" y="-38.5" font-family="Times,serif" text-decoration="underline" font-size="10.00" fill="#000000">house7 :House</text>
<polygon fill="none" stroke="#000000" points="1282,-3.5 1282,-31.5 1374,-31.5 1374,-3.5 1282,-3.5"/>
<text text-anchor="start" x="1285" y="-20.5" font-family="Times,serif" font-size="10.00" fill="#000000">name = &quot;house7&quot;</text>
<text text-anchor="start" x="1285" y="-9.5" font-family="Times,serif" font-size="10.00" fill="#000000">pebbles = 6</text>
</g>
<!-- house8 -->
<g id="node12" class="node">
<title>house8</title>
<polygon fill="none" stroke="#000000" points="1408,-31.5 1408,-48.5 1500,-48.5 1500,-31.5 1408,-31.5"/>
<text text-anchor="start" x="1417.5" y="-38.5" font-family="Times,serif" text-decoration="underline" font-size="10.00" fill="#000000">house8 :House</text>
<polygon fill="none" stroke="#000000" points="1408,-3.5 1408,-31.5 1500,-31.5 1500,-3.5 1408,-3.5"/>
<text text-anchor="start" x="1411" y="-20.5" font-family="Times,serif" font-size="10.00" fill="#000000">name = &quot;house8&quot;</text>
<text text-anchor="start" x="1411" y="-9.5" font-family="Times,serif" font-size="10.00" fill="#000000">pebbles = 6</text>
</g>
<!-- house9 -->
<g id="node13" class="node">
<title>house9</title>
<polygon fill="none" stroke="#000000" points="1534,-31.5 1534,-48.5 1626,-48.5 1626,-31.5 1534,-31.5"/>
<text text-anchor="start" x="1543.5" y="-38.5" font-family="Times,serif" text-decoration="underline" font-size="10.00" fill="#000000">house9 :House</text>
<polygon fill="none" stroke="#000000" points="1534,-3.5 1534,-31.5 1626,-31.5 1626,-3.5 1534,-3.5"/>
<text text-anchor="start" x="1537" y="-20.5" font-family="Times,serif" font-size="10.00" fill="#000000">name = &quot;house9&quot;</text>
<text text-anchor="start" x="1537" y="-9.5" font-family="Times,serif" font-size="10.00" fill="#000000">pebbles = 6</text>
</g>
<!-- sarp -->
<g id="node14" class="node">
<title>sarp</title>
<polygon fill="none" stroke="#000000" points="1288,-110 1288,-127 1368,-127 1368,-110 1288,-110"/>
<text text-anchor="start" x="1297" y="-117" font-family="Times,serif" text-decoration="underline" font-size="10.00" fill="#000000">sarp :Person</text>
<polygon fill="none" stroke="#000000" points="1288,-93 1288,-110 1368,-110 1368,-93 1288,-93"/>
<text text-anchor="start" x="1291" y="-99" font-family="Times,serif" font-size="10.00" fill="#000000">name = &quot;Sarp&quot;</text>
</g>
<!-- sarp&#45;&gt;house10 -->
<g id="edge11" class="edge">
<title>sarp&#45;&gt;house10</title>
<path fill="none" stroke="#000000" d="M1279.9135,-104.8133C1215.5232,-97.1474 1098.1359,-80.6371 1001,-53 998.1497,-52.189 995.2538,-51.2972 992.3458,-50.3468"/>
<text text-anchor="middle" x="1009.8458" y="-53.3468" font-family="Times,serif" font-size="10.00" fill="#000000">houses</text>
</g>
<!-- sarp&#45;&gt;house11 -->
<g id="edge12" class="edge">
<title>sarp&#45;&gt;house11</title>
<path fill="none" stroke="#000000" d="M1279.9073,-97.3478C1240.1864,-86.5631 1182.4982,-70.1259 1133,-53 1130.0828,-51.9907 1127.106,-50.9258 1124.1089,-49.8257"/>
<text text-anchor="middle" x="1141.6089" y="-52.8257" font-family="Times,serif" font-size="10.00" fill="#000000">houses</text>
</g>
<!-- sarp&#45;&gt;house12 -->
<g id="edge13" class="edge">
<title>sarp&#45;&gt;house12</title>
<path fill="none" stroke="#000000" d="M1295.4479,-88.9294C1278.7287,-78.1073 1258.1781,-64.8052 1240.3487,-53.2645"/>
<text text-anchor="middle" x="1222.8487" y="-56.2645" font-family="Times,serif" font-size="10.00" fill="#000000">houses</text>
</g>
<!-- sarp&#45;&gt;house7 -->
<g id="edge8" class="edge">
<title>sarp&#45;&gt;house7</title>
<path fill="none" stroke="#000000" d="M1328,-88.9294C1328,-78.1073 1328,-64.8052 1328,-53.2645"/>
<text text-anchor="middle" x="1310.5" y="-56.2645" font-family="Times,serif" font-size="10.00" fill="#000000">houses</text>
</g>
<!-- sarp&#45;&gt;house8 -->
<g id="edge9" class="edge">
<title>sarp&#45;&gt;house8</title>
<path fill="none" stroke="#000000" d="M1359.7951,-88.9294C1376.1254,-78.1073 1396.1981,-64.8052 1413.6129,-53.2645"/>
<text text-anchor="middle" x="1396.1129" y="-56.2645" font-family="Times,serif" font-size="10.00" fill="#000000">houses</text>
</g>
<!-- sarp&#45;&gt;house9 -->
<g id="edge10" class="edge">
<title>sarp&#45;&gt;house9</title>
<path fill="none" stroke="#000000" d="M1376.2261,-96.9698C1414.6915,-86.2149 1469.7589,-70.006 1517,-53 1519.9027,-51.9551 1522.8657,-50.849 1525.8467,-49.7051"/>
<text text-anchor="middle" x="1508.3467" y="-52.7051" font-family="Times,serif" font-size="10.00" fill="#000000">houses</text>
</g>
<!-- store2 -->
<g id="node16" class="node">
<title>store2</title>
<polygon fill="none" stroke="#000000" points="1660,-31.5 1660,-48.5 1748,-48.5 1748,-31.5 1660,-31.5"/>
<text text-anchor="start" x="1671.5" y="-38.5" font-family="Times,serif" text-decoration="underline" font-size="10.00" fill="#000000">store2 :Store</text>
<polygon fill="none" stroke="#000000" points="1660,-3.5 1660,-31.5 1748,-31.5 1748,-3.5 1660,-3.5"/>
<text text-anchor="start" x="1663" y="-20.5" font-family="Times,serif" font-size="10.00" fill="#000000">name = &quot;store2&quot;</text>
<text text-anchor="start" x="1663" y="-9.5" font-family="Times,serif" font-size="10.00" fill="#000000">pebbles = 0</text>
</g>
<!-- sarp&#45;&gt;store2 -->
<g id="edge14" class="edge">
<title>sarp&#45;&gt;store2</title>
<path fill="none" stroke="#000000" d="M1376.0381,-104.8067C1438.5166,-97.2627 1550.5924,-81.0212 1643,-53 1645.8729,-52.1288 1648.7914,-51.1613 1651.7167,-50.1259"/>
<text text-anchor="middle" x="1638.7167" y="-53.1259" font-family="Times,serif" font-size="10.00" fill="#000000">store</text>
</g>
</g>
</svg>
